# xmcd CD database file
#
# Track frame offsets:
#	150
#	29659
#	46069
#	67787
#	84972
#	102581
#	128406
#	147508
#	165825
#	199145
#	223550
#	256994
#
# Disc length: 3837 seconds
#
# Revision: 1
# Processed by: cddbd v1.5.2PL0 Copyright (c) Steve Scherf et al.
# Submitted via: CDex 1.70beta2
#
DISCID=9d0efb0c
DTITLE=Fred Simon - Since Forever
DYEAR=2009
DGENRE=Jazz
TTITLE0=Since Forever
TTITLE1=No War Nowhere
TTITLE2=Even In The Evening
TTITLE3=I Know You Know
TTITLE4=In A Silent Way
TTITLE5=More Often Than Not
TTITLE6=Simple Psalm
TTITLE7=Same Difference
TTITLE8=Ways Of Seeing
TTITLE9=What's The Magic Word?
TTITLE10=Song Of The Sea
TTITLE11=Beginning/Middle/End
EXTD=YEAR: 2009
EXTT0=
EXTT1=
EXTT2=
EXTT3=
EXTT4=
EXTT5=
EXTT6=
EXTT7=
EXTT8=
EXTT9=
EXTT10=
EXTT11=
PLAYORDER=
